<svg xmlns="http://www.w3.org/2000/svg" width="103.119" height="34.186" viewBox="0 0 103.119 34.186">
  <g id="Group_382" data-name="Group 382" transform="translate(-85.114 -27.528)">
    <path id="Path_26" data-name="Path 26" d="M351.935,56.607V50.839c0-.068,0-.135,0-.2-.009-.117.052-.153.154-.149.057,0,.114,0,.171,0h8.969c.038,0,.076,0,.114,0,.2.006.2.006.205.21q0,1.13,0,2.261c0,.143.059.323-.027.42-.1.113-.286.041-.434.041q-2.833.006-5.666,0c-.066,0-.133,0-.2,0-.094-.006-.138.031-.137.132q0,.739,0,1.478c0,.1.04.138.135.132.066,0,.133,0,.2,0h5.41a1.739,1.739,0,0,0,.2,0c.118-.014.145.044.143.151,0,.29,0,.58,0,.87,0,.531,0,1.063,0,1.594,0,.358.036.317-.327.317h-5.41c-.393,0-.346-.043-.348.356s0,.792,0,1.188c0,.138.042.189.179.184.246-.008.493,0,.74,0h5.239c.359,0,.308-.011.308.308,0,.782,0,1.565,0,2.348,0,.276.025.273-.257.272h-8.969c-.057,0-.114,0-.171,0-.212,0-.215,0-.215-.229q0-2.072,0-4.145V56.607" transform="translate(-189.509 -11.656)" fill="#053772"/>
    <path id="Path_27" data-name="Path 27" d="M211.6,54.651c0,1.14-.006,2.281,0,3.421a4.675,4.675,0,0,1-2.706,4.434,4.866,4.866,0,0,1-2.628.6,5.039,5.039,0,0,1-1.617-.41,4.9,4.9,0,0,1-2.805-2.755,4.391,4.391,0,0,1-.316-1.637q-.008-3.783,0-7.566c0-.249,0-.251.252-.251q1.424,0,2.848,0c.261,0,.263,0,.263.267,0,2.387.011,4.774-.005,7.16A1.642,1.642,0,0,0,206.23,59.6a1.666,1.666,0,0,0,2.02-1.629c-.023-2.387-.008-4.774-.007-7.16,0-.347-.057-.325.318-.326h2.791c.248,0,.25,0,.25.25q0,1.957,0,3.914" transform="translate(-72.145 -11.656)" fill="#053772"/>
    <path id="Path_28" data-name="Path 28" d="M432.952,50.51l0,2.806c-.067.185-.206.219-.385.218-.931-.006-1.861,0-2.791,0-.328,0-.293-.032-.293.29q0,4.233,0,8.466c0,.058,0,.116,0,.174,0,.329,0,.282-.276.282q-1.353,0-2.706,0c-.3,0-.293.044-.293-.293q0-4.277,0-8.553c0-.424.066-.364-.359-.366-.9,0-1.8,0-2.706,0-.342,0-.454-.116-.454-.466q0-1.16,0-2.319c0-.258,0-.261.239-.261h9.855a.25.25,0,0,1,.165.026" transform="translate(-244.724 -11.653)" fill="#053772"/>
    <path id="Path_29" data-name="Path 29" d="M304.108,56.611V50.873c0-.058,0-.116,0-.174.005-.207.005-.21.2-.212.351,0,.7,0,1.053,0h1.794c.306,0,.286-.026.286.3q0,2.159,0,4.318v4.26c0,.068,0,.135,0,.2,0,.085.033.125.117.123s.152,0,.228,0h5.665c.326,0,.31-.052.31.3q0,1.217,0,2.434c0,.361.02.315-.3.315h-9.11c-.244,0-.246,0-.246-.253q0-2.941,0-5.883" transform="translate(-152.189 -11.655)" fill="#053772"/>
    <path id="Path_30" data-name="Path 30" d="M405.657,56.64v5.824c0,.3.023.284-.276.283h-2.733c-.242,0-.245,0-.245-.255q0-2.391,0-4.781V50.872c0-.058,0-.116,0-.174.005-.206.005-.21.2-.212.4,0,.8,0,1.2,0,.531,0,1.063,0,1.594,0,.259,0,.26,0,.26.271q0,2.941,0,5.882" transform="translate(-228.892 -11.655)" fill="#053772"/>
    <path id="Path_31" data-name="Path 31" d="M30.376,16.953a5.993,5.993,0,0,0-2.514-4.5,5.867,5.867,0,0,0-3.57-1.145H21.444c-.248,0-.25,0-.3-.234-.157-.735-.3-1.473-.476-2.2a.549.549,0,0,1,.14-.57c.1-.1.159-.18.329-.123a.619.619,0,0,0,.74-.337.68.68,0,0,0-.161-.815A.662.662,0,0,0,20.9,7a.64.64,0,0,0-.2.8c.1.177.043.265-.061.393-.735.91-1.464,1.826-2.195,2.739l-.957,1.193v-.346c0-1.276,0-2.551,0-3.827a1.987,1.987,0,0,0-.171-.871.224.224,0,0,1,.036-.281c.247-.293.488-.592.718-.9a.28.28,0,0,1,.352-.118.619.619,0,0,0,.714-.338.681.681,0,0,0-.12-.775.654.654,0,0,0-1.06.735.282.282,0,0,1-.042.371c-.225.262-.434.537-.652.805-.039.049-.062.124-.145.118a2.3,2.3,0,0,0-3.941.086.5.5,0,0,1,.058-.626c.447-.525.873-1.07,1.3-1.616.145-.187.284-.326.536-.229a.272.272,0,0,0,.114,0A2.116,2.116,0,0,0,17.116,2.9,2.15,2.15,0,0,0,15.5.023,3.478,3.478,0,0,0,14.917,0a1.3,1.3,0,0,0-.639.111A2.14,2.14,0,0,0,13.036,1.9a2.126,2.126,0,0,0,1.092,2.187c.274.158.28.158.072.416-.38.47-.741.956-1.137,1.412a.837.837,0,0,0-.2.878,1.036,1.036,0,0,1,0,.628,2.019,2.019,0,0,0-.063.574q0,1.652,0,3.3c0,.362-.008.37-.369.371-1.149,0-2.3,0-3.446,0a7.147,7.147,0,0,0-1.938.283A9.016,9.016,0,0,0,.5,20.318a8.706,8.706,0,0,0,1.274,4.887.341.341,0,0,1-.018.446c-.206.252-.417.5-.613.763a.313.313,0,0,1-.32.128.693.693,0,0,0-.825.8.679.679,0,0,0,.779.65.674.674,0,0,0,.62-.807.687.687,0,0,1,.209-.771,4.241,4.241,0,0,0,.34-.428c.116-.16.218-.191.353-.012a12.515,12.515,0,0,0,1.523,1.6.2.2,0,0,1,.024.317c-.15.187-.315.362-.45.561a.739.739,0,0,1-.724.4.66.66,0,0,0-.631.566.693.693,0,0,0,.371.8.644.644,0,0,0,.77-.086.692.692,0,0,0,.25-.775.465.465,0,0,1,.1-.5,8.3,8.3,0,0,0,.54-.673c.141-.2.278-.209.477-.078a9.289,9.289,0,0,0,2.495,1.114c.273.081.282.111.1.336-.632.785-1.266,1.567-1.885,2.362a.5.5,0,0,1-.5.239.656.656,0,0,0-.641.3.735.735,0,0,0,.922,1.092.683.683,0,0,0,.363-.8.626.626,0,0,1,.168-.651q1-1.228,1.978-2.472a.462.462,0,0,1,.494-.2,3.446,3.446,0,0,0,.677.086c.647-.007,1.3.025,1.963-.025a.686.686,0,0,0-.513.54.736.736,0,0,0,.366.782.682.682,0,0,0,.817-.1.764.764,0,0,0,.2-.8c-.049-.2-.011-.342.194-.411a.224.224,0,0,0,.159-.152,4.874,4.874,0,0,1,.99-1.4c.129-.177.346-.145.531-.1.164.036.147.2.176.332a2.193,2.193,0,0,0,1.523,1.684c.3.1.308.093.114.339-.619.782-1.245,1.56-1.867,2.34a.457.457,0,0,1-.478.216.75.75,0,0,0-.758.576.676.676,0,0,0,.466.814c.052.019.115-.006.161.04h.114c.044-.058.126,0,.17-.058.411-.221.571-.558.384-.913a.279.279,0,0,1,.057-.369c.674-.837,1.35-1.671,2.011-2.518a1.372,1.372,0,0,1,.787-.54,2.04,2.04,0,0,0,1.5-2.072.606.606,0,0,1,.144-.417q.585-.711,1.151-1.438a.3.3,0,0,1,.367-.146.664.664,0,1,0-.463-.379.306.306,0,0,1-.057.394c-.349.42-.685.852-1.029,1.277-.045.057-.077.133-.163.151-.035-.09-.07-.18-.1-.269A2.077,2.077,0,0,0,15.458,25.6a2.146,2.146,0,0,0-1.794,1.732.444.444,0,0,1-.073.234c-.209,0-.408.007-.607,0a.287.287,0,0,0-.264.129c-.229.3-.465.586-.7.876-.037.045-.054.133-.154.1V28.06q0-1.377,0-2.754c0-.217,0-.218-.219-.219-.173,0-.346,0-.558,0,.074-.094.1-.155.185-.145a1.419,1.419,0,0,0,.225.021.666.666,0,0,0-.025-1.33.62.62,0,0,0-.583.344.674.674,0,0,0,.008.664c.034.066.118.105.11.192a.5.5,0,0,1-.308.265,7.1,7.1,0,0,1-2.035-.165,4.349,4.349,0,0,1-2.937-2.674.061.061,0,0,1,.011-.073c.7,0,1.406,0,2.108,0a.36.36,0,0,0,.335-.156c.217-.293.458-.567.678-.858a.255.255,0,0,1,.328-.116.623.623,0,0,0,.727-.368.679.679,0,0,0-.189-.808.659.659,0,0,0-.817.005.671.671,0,0,0-.18.81c.027.06.066.115.1.18-.253.317-.511.626-.752.948a.382.382,0,0,1-.366.159c-.379-.016-.759-.019-1.139-.025-.266,0-.531,0-.8-.008-.063,0-.148.025-.174-.056a3.23,3.23,0,0,1-.1-.392c-.022-.113.075-.171.132-.242q1.687-2.114,3.376-4.227c.1-.124.183-.186.351-.122a.64.64,0,0,0,.786-.583.466.466,0,0,1,.022-.239h2.385c.067,0,.133,0,.2,0,.083,0,.121.034.117.12,0,.068,0,.135,0,.2q0,2.275,0,4.551a2.924,2.924,0,0,0,.061.662,2.332,2.332,0,0,0,2.558,1.81,2.4,2.4,0,0,0,2-2.4c-.028-2.773-.008-5.547-.011-8.32a.652.652,0,0,1,.146-.447c.887-1.1,1.766-2.2,2.649-3.3.045-.056.071-.139.169-.148l.534,2.481h-.311c-.484,0-.969,0-1.452,0-.247,0-.247,0-.249.252,0,.019,0,.039,0,.058V23.268c0,.058,0,.116,0,.174,0,.083.034.125.118.123.047,0,.095,0,.142,0q2.578,0,5.155,0a5.567,5.567,0,0,0,1.187-.125,6.1,6.1,0,0,0,4.806-6.486M11.065,29.442a.48.48,0,0,1-.168.019l.168-.019M8.862,16.9q-1.615,2-3.221,4.018a.6.6,0,0,1-.177.184,4.449,4.449,0,0,1,3.345-4.9,1.132,1.132,0,0,0,.089.325.27.27,0,0,1-.037.371m15.893,3.561a2.383,2.383,0,0,1-.616.1c-.6,0-1.2,0-1.793,0-.222,0-.2-.013-.2-.208q0-1.463,0-2.926v-2.9c0-.249-.018-.234.23-.234.541,0,1.082,0,1.623,0a3.138,3.138,0,0,1,.754,6.166" transform="translate(85.113 27.528)" fill="#053772"/>
    <path id="Path_32" data-name="Path 32" d="M262.8,58.463a3.53,3.53,0,0,0-1.433-2.005,2.049,2.049,0,0,0,.158-.132,3.468,3.468,0,0,0-.85-5.4,3.786,3.786,0,0,0-1.746-.44q-2.919,0-5.837,0c-.355,0-.323-.042-.323.321q0,5.811,0,11.622c0,.058,0,.116,0,.174-.007.117.052.154.156.144.038,0,.076,0,.114,0h6.492a3.3,3.3,0,0,0,1.805-.523,3.383,3.383,0,0,0,1.465-3.76m-6.869-5.322c0-.165.063-.19.2-.187.331.007.663,0,.995,0h0c.331,0,.664-.01.995,0a1.242,1.242,0,0,1,.534,2.331,1.153,1.153,0,0,1-.57.154c-.654,0-1.308,0-1.961,0-.148,0-.194-.044-.193-.2.007-.7.008-1.408,0-2.112m3.405,6.183a1.2,1.2,0,0,1-1.128.818c-.35.009-.7,0-1.051,0h0c-.351,0-.7-.006-1.051,0-.142,0-.175-.05-.174-.184q.008-1.041,0-2.082c0-.141.026-.21.185-.208.691.007,1.382,0,2.074,0a1.222,1.222,0,0,1,1.145,1.647" transform="translate(-112.128 -11.653)" fill="#053772"/>
    <path id="Path_33" data-name="Path 33" d="M146.408,49.011a6.5,6.5,0,0,0-6.418,6.478,6.407,6.407,0,1,0,6.418-6.478m1.166,9.6a2.719,2.719,0,0,1-1.151.233,3.145,3.145,0,0,1-2.972-2.159,3.469,3.469,0,0,1,1.281-4.033,3.01,3.01,0,0,1,3.772.353,3.46,3.46,0,0,1-.931,5.605" transform="translate(-24.124 -10.51)" fill="#053772"/>
  </g>
</svg>
