<svg xmlns="http://www.w3.org/2000/svg" width="95.9" height="146.569" viewBox="0 0 95.9 146.569">
  <path id="Path_31" data-name="Path 31" d="M90.916,35.569c.424-.436.7-.77,1.439-.529A2.722,2.722,0,0,0,95.588,33.6a2.877,2.877,0,0,0-.7-3.494A2.937,2.937,0,0,0,91.318,30a2.711,2.711,0,0,0-.881,3.425c.424.758.186,1.135-.267,1.685-3.214,3.9-6.4,7.828-9.591,11.745-1.324,1.623-2.65,3.243-4.18,5.116V50.481c0-5.469-.011-10.939.009-16.407a8.379,8.379,0,0,0-.748-3.736.945.945,0,0,1,.155-1.2c1.078-1.256,2.133-2.538,3.139-3.855a1.233,1.233,0,0,1,1.538-.507,2.721,2.721,0,0,0,3.118-1.45,2.872,2.872,0,0,0-4.174-3.675,2.747,2.747,0,0,0-.98,3.5,1.194,1.194,0,0,1-.181,1.589c-.981,1.123-1.9,2.3-2.847,3.453-.172.208-.271.531-.635.507-4.689-6.634-13.045-5.778-17.222.367a2.128,2.128,0,0,1,.254-2.686c1.954-2.252,3.815-4.586,5.662-6.928.632-.8,1.243-1.4,2.344-.983a1.21,1.21,0,0,0,.5.012c3.708-.3,6.974-2.088,8.461-6.06A9.2,9.2,0,0,0,67.717.1,15.488,15.488,0,0,0,65.176.012a5.754,5.754,0,0,0-2.794.476,9.183,9.183,0,0,0-5.424,7.65c-.357,4.051,1.1,7.309,4.77,9.377,1.2.676,1.225.678.315,1.782-1.659,2.016-3.238,4.1-4.97,6.053a3.539,3.539,0,0,0-.881,3.764,4.362,4.362,0,0,1,.008,2.693,8.5,8.5,0,0,0-.274,2.461q.009,7.084,0,14.169c0,1.552-.036,1.588-1.614,1.589-5.019,0-10.039-.008-15.057,0a31.785,31.785,0,0,0-8.47,1.214A38.631,38.631,0,0,0,12.107,62.768,37.416,37.416,0,0,0,2.2,87.113a36.789,36.789,0,0,0,5.565,20.955,1.441,1.441,0,0,1-.081,1.912c-.9,1.082-1.824,2.149-2.678,3.27a1.38,1.38,0,0,1-1.4.548c-2.335-.225-3.7,1.1-3.606,3.422a2.951,2.951,0,0,0,3.4,2.786c1.784-.2,3.245-1.872,2.709-3.46a2.912,2.912,0,0,1,.913-3.306A18.242,18.242,0,0,0,8.515,111.4c.509-.686.953-.818,1.544-.053a54.108,54.108,0,0,0,6.657,6.861.835.835,0,0,1,.107,1.361c-.654.8-1.378,1.553-1.965,2.405a3.241,3.241,0,0,1-3.164,1.708,2.864,2.864,0,0,0-2.756,2.428,2.956,2.956,0,0,0,1.619,3.428,2.856,2.856,0,0,0,3.364-.367,2.935,2.935,0,0,0,1.091-3.321,1.965,1.965,0,0,1,.426-2.154,35.72,35.72,0,0,0,2.361-2.885c.615-.873,1.213-.9,2.083-.336a40.975,40.975,0,0,0,10.9,4.777c1.191.347,1.232.474.44,1.442-2.76,3.364-5.534,6.717-8.238,10.126a2.2,2.2,0,0,1-2.2,1.023,2.886,2.886,0,0,0-2.8,1.282,3.121,3.121,0,0,0,.159,3.915,3.284,3.284,0,0,0,3.867.766,2.911,2.911,0,0,0,1.588-3.436,2.65,2.65,0,0,1,.732-2.793q4.364-5.265,8.645-10.6a2.038,2.038,0,0,1,2.159-.85,15.33,15.33,0,0,0,2.958.371c2.829-.032,5.661.108,8.577-.108a2.966,2.966,0,0,0-2.24,2.315,3.133,3.133,0,0,0,1.6,3.355,3.022,3.022,0,0,0,3.569-.411,3.234,3.234,0,0,0,.873-3.423c-.212-.869-.05-1.467.847-1.762a.972.972,0,0,0,.694-.651c.758-2.484,2.856-4.011,4.325-5.984.565-.758,1.511-.623,2.319-.447.718.156.64.872.771,1.422a9.47,9.47,0,0,0,6.656,7.222c1.326.437,1.346.4.5,1.454-2.706,3.354-5.439,6.686-8.158,10.031a2.012,2.012,0,0,1-2.088.924,3.268,3.268,0,0,0-3.312,2.468,2.893,2.893,0,0,0,2.035,3.49c.228.08.5-.027.7.171h.5c.193-.247.551-.007.745-.25,1.795-.945,2.495-2.393,1.678-3.916a1.18,1.18,0,0,1,.248-1.582c2.943-3.587,5.9-7.165,8.787-10.8a6,6,0,0,1,3.438-2.316c4.031-1.013,6.53-4.554,6.54-8.884a2.57,2.57,0,0,1,.63-1.787q2.556-3.048,5.031-6.163a1.33,1.33,0,0,1,1.6-.627,2.8,2.8,0,0,0,3.27-3.719,2.863,2.863,0,0,0-3.751-1.69,2.778,2.778,0,0,0-1.543,3.786,1.3,1.3,0,0,1-.249,1.69c-1.526,1.8-2.994,3.653-4.5,5.477-.2.243-.337.57-.711.648-.154-.388-.306-.771-.456-1.155a9.094,9.094,0,0,0-9.477-5.536,9.3,9.3,0,0,0-7.84,7.427,1.881,1.881,0,0,1-.32,1c-.912,0-1.784.03-2.651-.011a1.26,1.26,0,0,0-1.155.553c-1,1.268-2.03,2.514-3.064,3.755-.16.194-.238.57-.674.428v-2.595q0-5.9,0-11.808c0-.93-.017-.934-.957-.94-.757-.006-1.514,0-2.44,0,.323-.4.446-.666.807-.622a6.315,6.315,0,0,0,.984.091,2.852,2.852,0,0,0-.108-5.7,2.719,2.719,0,0,0-2.549,1.476,2.844,2.844,0,0,0,.035,2.848c.15.283.514.452.479.825a2.17,2.17,0,0,1-1.347,1.135,31.6,31.6,0,0,1-8.892-.706A18.875,18.875,0,0,1,25.013,95.436a.259.259,0,0,1,.046-.313c3.074,0,6.142-.019,9.209.015a1.585,1.585,0,0,0,1.466-.669c.948-1.255,2-2.432,2.962-3.678a1.125,1.125,0,0,1,1.433-.5,2.734,2.734,0,0,0,3.178-1.578,2.874,2.874,0,0,0-.826-3.464,2.924,2.924,0,0,0-3.572.022,2.843,2.843,0,0,0-.786,3.474c.12.258.288.493.452.773-1.106,1.357-2.232,2.683-3.288,4.063a1.684,1.684,0,0,1-1.6.682c-1.657-.068-3.316-.08-4.976-.106-1.161-.017-2.322-.014-3.483-.035-.274,0-.645.108-.76-.242a13.633,13.633,0,0,1-.418-1.683c-.1-.486.328-.732.578-1.039Q32,82.1,39.378,73.041c.432-.53.8-.8,1.532-.523a2.789,2.789,0,0,0,3.433-2.5,1.962,1.962,0,0,1,.1-1.026h10.42c.291,0,.582.01.872,0,.362-.012.529.144.513.513-.014.29,0,.581,0,.871q0,9.756,0,19.514a12.306,12.306,0,0,0,.265,2.836,10.177,10.177,0,0,0,11.177,7.76,10.355,10.355,0,0,0,8.757-10.3c-.123-11.889-.034-23.781-.05-35.671a2.761,2.761,0,0,1,.639-1.918C80.9,47.9,84.743,43.169,88.6,38.456M48.347,126.23a2.136,2.136,0,0,1-.734.083c.245-.025.489-.052.734-.083M38.719,72.472q-7.058,8.6-14.073,17.226a2.587,2.587,0,0,1-.772.788,19.086,19.086,0,0,1,14.617-21,4.783,4.783,0,0,0,.391,1.394,1.144,1.144,0,0,1-.162,1.59" transform="translate(-0.001 0)" fill="#fff"/>
</svg>
